<svg width="335" height="344" viewBox="0 0 335 344" fill="none" xmlns="http://www.w3.org/2000/svg">
<path d="M284.809 233.119L165.455 236.077L46.1005 233.119C43.6235 249.608 45.5145 268.064 56.9685 280.181C65.3035 288.999 77.6195 293.183 89.7235 294.029C101.828 294.876 113.919 292.717 125.86 290.568C137.276 298.421 152.844 299.615 165.456 293.995C178.068 299.615 193.636 298.42 205.051 290.568C216.993 292.717 229.083 294.876 241.187 294.029C253.291 293.182 265.607 288.999 273.942 280.181C285.396 268.063 287.286 249.608 284.81 233.119H284.809Z" fill="#407BFF"/>
<g opacity="0.2">
<path d="M284.809 233.119L165.455 236.077L46.1005 233.119C43.6235 249.608 45.5145 268.064 56.9685 280.181C65.3035 288.999 77.6195 293.183 89.7235 294.029C101.828 294.876 113.919 292.717 125.86 290.568C137.276 298.421 152.844 299.615 165.456 293.995C178.068 299.615 193.636 298.42 205.051 290.568C216.993 292.717 229.083 294.876 241.187 294.029C253.291 293.182 265.607 288.999 273.942 280.181C285.396 268.063 287.286 249.608 284.81 233.119H284.809Z" fill="white"/>
</g>
<g opacity="0.1">
<path d="M214.965 256.673C214.769 251.526 212.886 246.612 211.027 241.808L116.759 264.484C115.867 270.053 118.629 276.033 123.447 278.965C126.659 280.919 130.605 281.59 133.511 283.975C135.622 285.708 136.976 288.181 138.83 290.187C144.802 296.651 154.645 297.236 163.444 297.379C169.77 297.482 176.214 297.569 182.274 295.75C188.334 293.932 194.059 289.869 196.263 283.939C197.205 281.405 197.514 278.559 199.15 276.407C201.535 273.271 205.938 272.581 209.156 270.307C213.363 267.335 215.161 261.82 214.965 256.673Z" fill="black"/>
</g>
<path d="M199.937 249.72L191.761 210.925L171.974 206.339V202.513L163.72 204.426L155.465 202.513V206.339L135.678 210.925L127.502 249.72C126.936 259.543 132.125 269.489 140.506 274.645C142.204 275.69 144.136 276.674 144.958 278.491C145.745 280.23 145.289 282.244 144.966 284.125C143.795 290.948 144.618 298.102 147.307 304.481C149.477 309.629 152.891 315.24 150.672 320.367C149.617 322.805 147.313 325.215 148.281 327.689C149.207 330.054 152.688 330.754 153.315 333.214C154.113 336.342 149.555 339.42 151.444 342.294C152.047 343.212 153.138 343.706 154.236 343.668C155.01 343.642 155.715 343.568 156.369 343.459C161.243 342.646 166.193 342.646 171.067 343.459C171.721 343.568 172.426 343.641 173.2 343.668C174.298 343.706 175.389 343.211 175.992 342.294C177.881 339.42 173.323 336.342 174.121 333.214C174.749 330.754 178.23 330.053 179.155 327.689C180.123 325.215 177.819 322.805 176.764 320.367C174.545 315.239 177.959 309.629 180.129 304.481C182.818 298.102 183.641 290.948 182.47 284.125C182.147 282.244 181.691 280.23 182.478 278.491C183.3 276.675 185.232 275.69 186.93 274.645C195.311 269.489 200.5 259.544 199.934 249.72H199.937Z" fill="#407BFF"/>
<g opacity="0.2">
<path d="M199.937 249.72L191.761 210.925L171.974 206.339V202.513L163.72 204.426L155.465 202.513V206.339L135.678 210.925L127.502 249.72C126.936 259.543 132.125 269.489 140.506 274.645C142.204 275.69 144.136 276.674 144.958 278.491C145.745 280.23 145.289 282.244 144.966 284.125C143.795 290.948 144.618 298.102 147.307 304.481C149.477 309.629 152.891 315.24 150.672 320.367C149.617 322.805 147.313 325.215 148.281 327.689C149.207 330.054 152.688 330.754 153.315 333.214C154.113 336.342 149.555 339.42 151.444 342.294C152.047 343.212 153.138 343.706 154.236 343.668C155.01 343.642 155.715 343.568 156.369 343.459C161.243 342.646 166.193 342.646 171.067 343.459C171.721 343.568 172.426 343.641 173.2 343.668C174.298 343.706 175.389 343.211 175.992 342.294C177.881 339.42 173.323 336.342 174.121 333.214C174.749 330.754 178.23 330.053 179.155 327.689C180.123 325.215 177.819 322.805 176.764 320.367C174.545 315.239 177.959 309.629 180.129 304.481C182.818 298.102 183.641 290.948 182.47 284.125C182.147 282.244 181.691 280.23 182.478 278.491C183.3 276.675 185.232 275.69 186.93 274.645C195.311 269.489 200.5 259.544 199.934 249.72H199.937Z" fill="black"/>
</g>
<g opacity="0.2">
<path d="M185.576 216.987L164.672 212.142V211.7L163.719 211.921L162.767 211.7V212.142L141.862 216.987L134.769 250.643C134.558 257.654 138.355 264.749 144.331 268.425L144.875 268.755C146.894 269.968 149.946 271.803 151.611 275.481C153.262 279.132 152.647 282.615 152.239 284.92L152.162 285.359C151.231 290.786 151.896 296.569 154.035 301.644C154.358 302.41 154.712 303.188 155.068 303.973C157.37 309.045 160.522 315.992 157.373 323.266C157.289 323.461 157.202 323.652 157.114 323.837C156.684 324.741 156.892 325.804 157.591 326.521C158.734 327.696 159.848 329.277 160.392 331.407C160.78 332.929 157.777 341.986 157.574 343.275C162.077 342.64 166.371 342.751 171.07 343.459C170.867 342.17 166.662 332.929 167.05 331.409C167.595 329.27 168.716 327.684 169.863 326.508C170.554 325.799 170.76 324.748 170.334 323.854C170.243 323.663 170.153 323.467 170.066 323.266C166.917 315.99 170.07 309.043 172.372 303.969C172.728 303.185 173.081 302.409 173.404 301.644C175.542 296.57 176.207 290.786 175.275 285.357L175.197 284.911C174.791 282.608 174.177 279.126 175.829 275.477C177.493 271.801 180.544 269.967 182.563 268.754L183.106 268.425C189.082 264.748 192.879 257.653 192.668 250.642L185.575 216.986L185.576 216.987Z" fill="black"/>
</g>
<path opacity="0.2" d="M110.617 267.877C110.617 267.877 123.263 271.958 133.212 260.848C143.161 249.738 148.467 233.76 149.296 228.484C149.296 228.484 166.873 224.004 164.807 203.773L149.13 205.632L118.223 224.866L110.617 267.876V267.877Z" fill="black"/>
<path opacity="0.2" d="M219.857 267.877C219.857 267.877 207.211 271.958 197.262 260.848C187.313 249.738 182.007 233.76 181.178 228.484C181.178 228.484 163.601 224.004 165.667 203.773L181.344 205.632L212.251 224.866L219.857 267.876V267.877Z" fill="black"/>
<path d="M180.097 3.78571H152.933V203.774H180.097V3.78571Z" fill="#407BFF"/>
<path opacity="0.2" d="M180.097 3.78571H152.933V203.774H180.097V3.78571Z" fill="black"/>
<path d="M166.976 6.97772C166.976 6.97772 161.105 -5.99628 139.302 3.43872C139.302 3.43872 94.1915 0.293709 59.2305 46.6867C59.2305 46.6867 13.0796 69.2387 10.3616 124.141L10.3596 141.047C10.3596 141.047 -12.9494 172.25 10.3596 199.7C10.3596 199.7 3.59555 220.859 22.0156 236.193C22.0156 236.193 28.7826 258.997 60.7356 269.219C92.6886 279.441 136.296 268.826 144.566 244.45C152.836 220.074 150.581 225.185 150.581 225.185C161.12 222.659 168.563 212.808 168.476 201.5L166.976 6.97772Z" fill="#407BFF"/>
<g opacity="0.4">
<path d="M167.393 143.866C151.032 154.415 128.476 149.115 117.8 132.996C114.245 127.883 111.942 121.931 111.204 115.845C112.712 121.784 115.436 127.303 119.063 132.079C130.157 147.121 150.57 151.944 167.393 143.866Z" fill="black"/>
<path d="M115.423 132.054C102.156 142.881 82.7656 146.165 66.7346 140.058C83.3516 143.304 100.697 140.375 115.423 132.054Z" fill="black"/>
<path d="M90.1635 142.334C85.2585 146.055 83.7885 152.511 83.4445 158.353C82.8745 170.222 88.1665 182.314 98.0565 189.122C102.93 192.521 108.711 194.714 114.796 195.209C108.647 195.507 102.404 193.734 97.1925 190.422C86.4435 183.799 80.6515 170.665 81.8945 158.24C82.5105 152.257 84.6505 145.467 90.1635 142.334Z" fill="black"/>
<path d="M167.389 177.329C150.698 186.23 124.352 183.569 113.135 167.173C111.646 164.735 110.539 162.051 110.159 159.262C111.726 164.649 115.395 169.027 119.851 172.265C133.515 181.766 151.921 182.774 167.389 177.329Z" fill="black"/>
<path d="M114.029 71.4157C120.918 69.3437 126.511 64.2597 128.988 57.5207C129.826 55.3157 130.366 52.9817 130.664 50.5247C132.917 60.5297 124.465 71.6997 114.029 71.4157Z" fill="black"/>
<path d="M167.04 100.43C146.844 100.844 134.212 81.1837 126.85 64.7757C129.523 68.6497 132.024 72.6147 134.682 76.4407C142.377 87.7217 152.807 98.6807 167.041 100.43H167.04Z" fill="black"/>
<path d="M166.317 60.6517C159.068 49.9527 150.129 37.0487 135.934 36.7467C131.542 36.7337 127.05 38.1477 123.577 41.1867C126.447 37.5377 131.16 35.4487 135.887 35.1867C150.787 34.5617 160.915 48.3977 166.317 60.6517Z" fill="black"/>
<path d="M139.206 35.1987C139.518 29.4837 135.443 25.1427 130.819 22.4447C129.249 21.4827 127.581 20.5957 125.968 19.5287C129.81 20.1377 133.617 21.4757 136.514 24.2237C139.338 26.9207 141.099 31.5707 139.206 35.1987Z" fill="black"/>
<path d="M106.417 26.7677C103.493 36.0257 102.7 45.8197 104.495 55.3567C105.076 58.5157 105.926 61.6337 107.012 64.7237L106.793 64.8027L106.675 63.8307L107.02 64.7477L106.801 64.8267C105.059 62.0277 103.773 58.9297 102.906 55.7187C100.371 46.1427 101.331 35.3527 106.416 26.7687L106.417 26.7677Z" fill="black"/>
<path d="M115.315 59.5917C104.401 67.4547 94.9695 81.0017 99.8415 94.7987C101.406 99.0327 104.343 102.908 108.561 105.09C106.274 104.383 104.202 103.051 102.483 101.376C95.2425 94.3397 95.2245 82.6457 99.8955 74.1817C103.297 67.8207 109.005 62.8347 115.315 59.5917Z" fill="black"/>
<path d="M98.6855 95.0567C84.8055 96.5477 71.5905 103.584 63.6985 115.264C69.1205 101.891 84.5255 93.5897 98.6855 95.0567Z" fill="black"/>
<path d="M42.8945 126.948C39.4525 108.514 50.0465 88.0307 67.6945 81.1707C51.6615 90.6747 42.5285 108.457 42.8945 126.948Z" fill="black"/>
<path d="M54.6915 90.3037C52.1545 77.9057 57.1195 63.8997 67.1605 56.1247C59.3185 65.8247 55.0545 77.8597 54.6915 90.3037Z" fill="black"/>
<path d="M53.5405 90.7457C46.5375 90.0347 39.7515 90.9727 33.1655 93.4427C38.3885 88.3987 47.1875 87.2167 53.5405 90.7457Z" fill="black"/>
<path d="M72.9255 39.3257C81.1675 31.6317 95.7965 33.0117 102.549 42.0067C93.8555 35.5207 82.6305 34.4257 72.9255 39.3257Z" fill="black"/>
<path d="M154.164 7.34372C159.339 6.83872 164.54 11.2807 165.034 16.4227C161.929 12.6527 158.487 9.64372 154.164 7.34372Z" fill="black"/>
<path d="M33.7415 105.353C27.2935 121.158 20.6625 139.083 27.4925 155.814C29.6365 161.126 33.0535 166.071 37.9775 169.37C35.3105 168.091 32.9615 166.168 30.9375 163.967C16.2655 146.746 23.5045 122.862 33.7425 105.353H33.7415Z" fill="black"/>
<path d="M41.7215 151.195C33.6715 169.256 41.7995 192.6 61.4365 198.454C67.5405 200.373 74.2755 200.6 80.5735 198.652C74.5025 201.376 67.4236 201.691 60.9996 199.953C40.1126 194.702 31.0965 169.22 41.7215 151.195Z" fill="black"/>
<path d="M8.78455 175.236C11.1255 167.19 19.9015 161.169 28.2735 162.307C20.3615 164.118 13.6325 168.768 8.78455 175.236Z" fill="black"/>
<path d="M11.1235 141.339C11.6215 149.703 14.7185 157.584 20.3165 163.851C12.6625 159.721 8.67851 149.634 11.1235 141.339Z" fill="black"/>
<path d="M27.1376 202.513C26.2756 228.487 43.3406 253.328 70.7696 253.962C74.2976 253.999 78.1536 253.761 81.6726 253.727C78.1726 254.191 74.3136 254.673 70.7786 254.943C42.5336 256.131 23.4166 229.139 27.1376 202.513Z" fill="black"/>
<path d="M9.84753 200.393C15.0645 204.298 20.6635 207.139 26.9525 208.871C20.3095 210.013 13.0135 206.311 9.84753 200.393Z" fill="black"/>
<path d="M72.5455 232.206C84.2435 230.261 96.8855 230.23 107.739 235.764C115.798 239.965 122.304 247.47 124.396 256.379C125.032 259.323 125.224 262.372 124.722 265.304C124.894 259.348 122.862 253.632 119.63 248.868C109.24 233.318 89.7635 231.442 72.5455 232.207V232.206Z" fill="black"/>
<g opacity="0.2">
<path d="M71.4346 141.923C78.2126 147.942 87.6656 150.515 96.3886 148.716C105.112 146.917 112.923 139.39 117.009 131.13C111.132 134.741 100.034 140.049 93.5356 142.204" fill="black"/>
</g>
<path opacity="0.2" d="M42.6856 115.845C42.6856 115.845 41.5916 97.3947 53.5406 85.8987C65.4896 74.4037 81.5896 76.0227 81.5896 76.0227C81.5896 76.0227 54.5556 79.5717 42.6856 115.845Z" fill="black"/>
<g opacity="0.2">
<path d="M130.674 56.1127C129.218 62.4707 124.915 67.6547 119.313 70.5557C122.992 72.7457 128.118 71.7557 130.807 68.3367C133.496 64.9177 133.437 59.4667 130.674 56.1127Z" fill="black"/>
</g>
<path opacity="0.2" d="M116.074 169.949C116.449 170.329 122.675 185.759 141.93 185.921C161.184 186.083 163.857 178.709 163.857 178.709C163.857 178.709 148.296 183.918 131.526 177.936C114.756 171.954 116.074 169.949 116.074 169.949Z" fill="black"/>
</g>
<path opacity="0.2" d="M48.9446 192.51C48.9446 192.51 58.5326 208.231 74.1216 206.496C89.7106 204.761 92.2086 194.354 92.2086 194.354C92.2086 194.354 86.0626 199.57 70.5766 200.508C58.1516 201.26 48.9446 192.51 48.9446 192.51Z" fill="black"/>
<path opacity="0.2" d="M136.975 81.1707C136.975 81.1707 139.648 96.8997 153.012 103.274C162.901 107.99 167.744 106.621 167.744 106.621L167.696 100.43C167.696 100.43 153.983 103.728 136.975 81.1707Z" fill="black"/>
<g opacity="0.2">
<path d="M127.819 37.5487C133.38 33.7047 140.733 32.8597 146.959 35.3507C153.185 37.8417 158.123 43.6027 159.811 50.3467C153.092 40.1607 140.427 34.6757 128.79 36.9127" fill="black"/>
</g>
<g opacity="0.2">
<path d="M53.7345 90.3137C49.8945 80.0577 51.9375 67.6527 58.8355 59.3317C62.1935 55.2807 66.8485 52.0977 71.9685 51.8387C60.9785 60.7827 54.2725 75.2187 54.3405 89.7837" fill="black"/>
</g>
<g opacity="0.2">
<path d="M80.8605 230.784C86.5975 226.496 94.2515 225.152 101.013 227.244C107.775 229.336 113.497 234.819 116.081 241.681C106.244 234.15 93.7485 230.511 81.6055 231.641" fill="black"/>
</g>
<path opacity="0.2" d="M76.2916 142.334C75.8976 142.295 82.5746 145.437 82.5746 145.437C82.5746 145.437 71.4696 165.155 87.4446 179.005C87.4446 179.005 80.6146 164.355 83.3106 153.747C86.0066 143.139 92.8966 141.242 92.8966 141.242C92.8966 141.242 82.8836 142.982 76.2916 142.335V142.334Z" fill="black"/>
<path opacity="0.2" d="M68.1546 108.772C68.1546 108.772 72.9876 96.8107 82.2496 92.7077C91.5126 88.6047 94.2206 90.3147 94.2206 90.3147C94.2206 90.3147 92.8756 80.2217 100.815 74.4537C100.815 74.4537 96.0016 89.4967 98.6846 95.0577C98.6846 95.0577 81.1916 93.9887 68.1536 108.772H68.1546Z" fill="black"/>
<g opacity="0.2">
<path d="M101 106.501C100.454 105.668 99.8076 104.972 99.0926 104.374C95.9946 101.787 91.7706 101.226 88.0376 102.62C82.2656 104.776 77.0616 108.303 72.7686 112.982C70.7086 115.227 68.7526 118.378 70.4906 121.303C71.0436 122.233 71.9156 122.917 72.8906 123.316C75.3556 124.324 77.9046 123.718 80.3336 123.021C85.9806 121.402 91.4916 119.263 96.7826 116.638C99.4256 115.326 102.272 113.619 102.123 109.883C102.075 108.672 101.655 107.5 101 106.5V106.501Z" fill="white"/>
</g>
<g opacity="0.2">
<path d="M87.8656 85.2097C85.9336 81.4997 81.6545 79.8697 77.8165 81.1877C67.5205 84.7237 58.5075 92.2857 53.0655 102.098C52.4975 103.122 51.9716 104.457 52.7496 105.398C53.1636 105.899 53.8385 106.085 54.4635 105.982C55.5725 105.8 56.3635 104.971 57.1315 104.187C65.7265 95.4087 76.3876 88.8597 87.9046 85.2847L87.8656 85.2097Z" fill="white"/>
</g>
<g opacity="0.2">
<path d="M125.442 24.9717C124.351 23.4967 122.45 22.9107 120.667 22.9227C116.583 22.9507 112.801 25.7357 110.741 29.4247C108.681 33.1137 108.167 37.5697 108.545 41.8227C108.923 46.0757 110.137 50.1937 111.343 54.2747L112.362 54.1327C113.716 46.5507 119.335 40.7537 123.727 34.5577C124.724 33.1507 125.683 31.6687 126.137 29.9827C126.59 28.2967 126.466 26.3567 125.442 24.9717Z" fill="white"/>
</g>
<g opacity="0.2">
<path d="M155.78 17.9817C153.849 13.6097 148.054 10.7967 143.531 9.89572C141.075 9.84572 138.498 9.82472 136.325 11.0227C134.152 12.2207 132.602 15.0737 133.618 17.4127C134.254 18.8757 135.675 19.7567 137.013 20.5467C141.25 23.0457 145.616 25.5917 150.433 26.2937C152.013 26.5237 153.759 26.5057 155.03 25.4977C157.107 23.8497 156.873 20.4567 155.78 17.9817Z" fill="white"/>
</g>
<g opacity="0.2">
<path d="M157.895 68.1957C157.523 63.9367 155.786 60.2067 153.972 56.5057C153.354 55.2437 152.705 54.2237 152.039 53.3977C148.301 48.7687 141.047 50.6937 139.686 56.5817C139.225 58.5777 139.239 60.7137 139.775 62.6817C141.069 67.4327 144.906 71.1177 149.277 72.9907C152.214 74.2497 156.223 74.5437 157.592 70.9157C157.916 70.0567 157.976 69.1147 157.896 68.1957H157.895Z" fill="white"/>
</g>
<g opacity="0.2">
<path d="M137.814 216.604C139.17 224.493 138.597 232.895 135.234 240.098C131.871 247.301 125.521 253.144 118.01 254.74C110.499 256.335 102.023 253.185 97.8816 246.44C84.3126 255.628 62.6926 259.377 47.2926 248.466C31.8926 237.555 24.7706 219.171 26.9526 199.851C16.5636 195.973 6.71657 185.513 3.83957 174.376C0.961572 163.239 3.61857 150.702 10.7256 141.879L10.1736 141.309C8.03057 144.331 -11.7204 173.699 10.3606 199.703C10.3606 199.703 3.59657 220.862 22.0166 236.196C22.0166 236.196 28.7826 259 60.7366 269.222C92.6896 279.444 136.297 268.829 144.567 244.452C149.253 230.64 150.559 226.298 150.811 225.126C161.228 222.512 168.563 212.727 168.476 201.501L168.357 186.1L168.294 186.003C166.015 201.66 152.865 214.864 137.814 216.606V216.604Z" fill="black"/>
</g>
<path opacity="0.2" d="M10.3626 124.142L10.3606 136.959C10.3716 134.395 10.9606 102.458 33.1666 75.9447C56.3176 48.3037 67.6946 52.7437 67.6946 52.7437C67.6946 52.7437 68.4836 32.9137 100.816 17.2397C133.147 1.56571 139.298 11.8827 139.298 11.8827C139.298 11.8827 146.806 0.351711 165.454 4.79471C162.578 1.56171 155.153 -3.42028 139.302 3.43972C139.302 3.43972 94.1916 0.294716 59.2306 46.6877C59.2306 46.6877 13.0806 69.2397 10.3626 124.142Z" fill="white"/>
<path d="M167.285 6.97772C167.285 6.97772 173.155 -5.99628 194.959 3.43872C194.959 3.43872 240.069 0.293709 275.03 46.6867C275.03 46.6867 321.181 69.2387 323.899 124.141L323.901 141.047C323.901 141.047 347.21 172.25 323.901 199.7C323.901 199.7 330.665 220.859 312.245 236.193C312.245 236.193 305.478 258.997 273.525 269.219C241.572 279.441 197.965 268.826 189.695 244.45C181.425 220.074 183.68 225.185 183.68 225.185C173.141 222.659 165.698 212.808 165.785 201.5L167.285 6.97772Z" fill="#407BFF"/>
<g opacity="0.4">
<path d="M166.869 143.866C183.697 151.945 204.104 147.121 215.199 132.079C218.826 127.303 221.551 121.784 223.058 115.845C222.32 121.931 220.017 127.883 216.462 132.996C205.788 149.115 183.223 154.414 166.869 143.866Z" fill="black"/>
<path d="M218.838 132.054C233.563 140.375 250.909 143.304 267.526 140.058C251.496 146.165 232.106 142.882 218.838 132.054Z" fill="black"/>
<path d="M244.097 142.334C249.611 145.468 251.749 152.256 252.366 158.24C253.609 170.665 247.817 183.799 237.068 190.422C231.858 193.734 225.614 195.507 219.465 195.209C225.55 194.714 231.331 192.521 236.204 189.122C246.094 182.314 251.386 170.223 250.815 158.353C250.472 152.511 249.001 146.054 244.096 142.334H244.097Z" fill="black"/>
<path d="M166.873 177.329C182.34 182.774 200.749 181.766 214.411 172.265C218.866 169.027 222.536 164.648 224.103 159.262C223.723 162.051 222.616 164.735 221.127 167.172C209.908 183.567 183.574 186.231 166.873 177.328V177.329Z" fill="black"/>
<path d="M220.233 71.4157C209.797 71.6987 201.346 60.5297 203.598 50.5247C203.896 52.9807 204.436 55.3157 205.273 57.5207C207.75 64.2607 213.343 69.3437 220.232 71.4157H220.233Z" fill="black"/>
<path d="M167.221 100.43C181.457 98.6787 191.883 87.7227 199.58 76.4407C202.237 72.6137 204.739 68.6487 207.412 64.7757C200.056 81.1777 187.411 100.851 167.221 100.43Z" fill="black"/>
<path d="M167.944 60.6517C173.341 48.4017 183.478 34.5577 198.374 35.1867C203.1 35.4487 207.813 37.5377 210.683 41.1867C207.21 38.1477 202.718 36.7337 198.326 36.7467C184.127 37.0517 175.197 49.9487 167.944 60.6517Z" fill="black"/>
<path d="M195.055 35.1987C193.162 31.5697 194.923 26.9207 197.747 24.2227C200.644 21.4747 204.451 20.1377 208.293 19.5277C206.68 20.5947 205.012 21.4817 203.442 22.4437C198.819 25.1407 194.743 29.4837 195.055 35.1977V35.1987Z" fill="black"/>
<path d="M227.845 26.7677C232.93 35.3517 233.89 46.1417 231.355 55.7177C230.488 58.9277 229.203 62.0267 227.46 64.8257L227.241 64.7467L227.586 63.8297L227.468 64.8017L227.249 64.7227C228.336 61.6327 229.185 58.5137 229.766 55.3557C231.561 45.8187 230.768 36.0247 227.844 26.7667L227.845 26.7677Z" fill="black"/>
<path d="M218.947 59.5917C225.257 62.8337 230.965 67.8197 234.366 74.1807C239.037 82.6437 239.019 94.3417 231.779 101.376C230.06 103.05 227.988 104.383 225.701 105.09C229.919 102.909 232.856 99.0327 234.42 94.7987C239.291 80.9987 229.863 67.4577 218.947 59.5917Z" fill="black"/>
<path d="M235.576 95.0567C249.735 93.5897 265.141 101.891 270.563 115.264C262.671 103.584 249.457 96.5477 235.576 95.0567Z" fill="black"/>
<path d="M291.367 126.948C291.733 108.457 282.599 90.6747 266.567 81.1707C284.216 88.0317 294.809 108.513 291.367 126.948Z" fill="black"/>
<path d="M279.569 90.3037C279.206 77.8597 274.942 65.8237 267.099 56.1247C277.141 63.8997 282.106 77.9057 279.569 90.3037Z" fill="black"/>
<path d="M280.72 90.7457C287.073 87.2157 295.872 88.3977 301.095 93.4417C294.509 90.9727 287.724 90.0347 280.72 90.7457Z" fill="black"/>
<path d="M261.336 39.3257C251.629 34.4247 240.405 35.5217 231.713 42.0067C238.465 33.0117 253.095 31.6327 261.336 39.3257Z" fill="black"/>
<path d="M180.097 7.34372C175.774 9.64372 172.332 12.6527 169.227 16.4227C169.721 11.2807 174.922 6.83872 180.097 7.34372Z" fill="black"/>
<path d="M300.52 105.353C310.758 122.858 317.996 146.751 303.325 163.967C301.301 166.168 298.951 168.091 296.285 169.37C301.209 166.07 304.626 161.126 306.77 155.814C313.599 139.08 306.97 121.163 300.521 105.353H300.52Z" fill="black"/>
<path d="M292.539 151.195C303.165 169.228 294.147 194.699 273.261 199.953C266.837 201.691 259.758 201.376 253.688 198.652C259.986 200.6 266.721 200.373 272.825 198.455C292.462 192.602 300.589 169.251 292.54 151.196L292.539 151.195Z" fill="black"/>
<path d="M325.476 175.236C320.628 168.769 313.899 164.118 305.987 162.308C314.359 161.17 323.135 167.19 325.476 175.236Z" fill="black"/>
<path d="M323.137 141.339C325.582 149.633 321.598 159.721 313.944 163.851C319.541 157.585 322.639 149.703 323.137 141.339Z" fill="black"/>
<path d="M307.123 202.513C310.843 229.15 291.724 256.128 263.482 254.942C259.948 254.67 256.093 254.19 252.588 253.727C256.103 253.761 259.962 254.001 263.491 253.962C290.923 253.331 307.987 228.475 307.122 202.513H307.123Z" fill="black"/>
<path d="M324.414 200.393C321.248 206.311 313.952 210.013 307.309 208.871C313.598 207.139 319.197 204.297 324.414 200.393Z" fill="black"/>
<path d="M261.715 232.206C244.499 231.441 225.02 233.318 214.632 248.868C211.4 253.632 209.368 259.348 209.54 265.304C209.038 262.372 209.23 259.324 209.866 256.379C211.958 247.47 218.464 239.965 226.523 235.764C237.376 230.231 250.017 230.262 261.716 232.206H261.715Z" fill="black"/>
<g opacity="0.2">
<path d="M262.827 141.923C256.049 147.942 246.596 150.515 237.873 148.716C229.15 146.917 221.339 139.39 217.253 131.13C223.13 134.741 234.228 140.049 240.726 142.204" fill="black"/>
</g>
<path opacity="0.2" d="M291.576 115.845C291.576 115.845 292.67 97.3947 280.721 85.8987C268.771 74.4037 252.672 76.0227 252.672 76.0227C252.672 76.0227 279.706 79.5717 291.576 115.845Z" fill="black"/>
<g opacity="0.2">
<path d="M203.587 56.1127C205.043 62.4707 209.346 67.6547 214.948 70.5557C211.269 72.7457 206.143 71.7557 203.454 68.3367C200.764 64.9177 200.824 59.4667 203.587 56.1127Z" fill="black"/>
</g>
<path opacity="0.2" d="M218.188 169.949C217.813 170.329 211.587 185.759 192.332 185.921C173.078 186.083 170.405 178.709 170.405 178.709C170.405 178.709 185.966 183.918 202.736 177.936C219.506 171.954 218.188 169.949 218.188 169.949Z" fill="black"/>
</g>
<path opacity="0.2" d="M285.317 192.51C285.317 192.51 275.729 208.231 260.14 206.496C244.55 204.761 242.053 194.354 242.053 194.354C242.053 194.354 248.199 199.57 263.685 200.508C276.109 201.26 285.317 192.51 285.317 192.51Z" fill="black"/>
<path opacity="0.2" d="M197.286 81.1707C197.286 81.1707 194.613 96.8997 181.249 103.274C171.36 107.99 166.517 106.621 166.517 106.621L166.565 100.43C166.565 100.43 180.278 103.728 197.286 81.1707Z" fill="black"/>
<g opacity="0.2">
<path d="M206.442 37.5487C200.881 33.7047 193.528 32.8597 187.302 35.3507C181.076 37.8417 176.138 43.6027 174.45 50.3467C181.169 40.1607 193.834 34.6757 205.471 36.9127" fill="black"/>
</g>
<g opacity="0.2">
<path d="M280.527 90.3137C284.367 80.0577 282.324 67.6527 275.426 59.3317C272.068 55.2807 267.413 52.0977 262.293 51.8387C273.283 60.7827 279.989 75.2187 279.921 89.7837" fill="black"/>
</g>
<g opacity="0.2">
<path d="M253.401 230.784C247.664 226.496 240.01 225.152 233.249 227.244C226.487 229.336 220.765 234.819 218.181 241.681C228.018 234.15 240.513 230.511 252.656 231.641" fill="black"/>
</g>
<path opacity="0.2" d="M257.969 142.334C258.363 142.295 251.686 145.437 251.686 145.437C251.686 145.437 262.791 165.155 246.816 179.005C246.816 179.005 253.646 164.355 250.95 153.747C248.254 143.139 241.364 141.242 241.364 141.242C241.364 141.242 251.377 142.982 257.969 142.335V142.334Z" fill="black"/>
<path opacity="0.2" d="M266.106 108.772C266.106 108.772 261.273 96.8107 252.011 92.7077C242.748 88.6047 240.04 90.3147 240.04 90.3147C240.04 90.3147 241.385 80.2217 233.446 74.4537C233.446 74.4537 238.259 89.4967 235.576 95.0577C235.576 95.0577 253.069 93.9887 266.107 108.772H266.106Z" fill="black"/>
<g opacity="0.2">
<path d="M233.262 106.501C233.808 105.668 234.454 104.972 235.169 104.374C238.267 101.787 242.491 101.226 246.224 102.62C251.996 104.776 257.2 108.303 261.492 112.982C263.552 115.227 265.508 118.378 263.77 121.303C263.217 122.233 262.345 122.917 261.37 123.316C258.905 124.324 256.356 123.718 253.927 123.021C248.28 121.402 242.769 119.263 237.478 116.638C234.835 115.326 231.989 113.619 232.138 109.883C232.186 108.672 232.606 107.5 233.261 106.5L233.262 106.501Z" fill="white"/>
</g>
<g opacity="0.2">
<path d="M246.395 85.2097C248.327 81.4997 252.606 79.8697 256.444 81.1877C266.74 84.7237 275.753 92.2857 281.195 102.098C281.763 103.122 282.289 104.457 281.511 105.398C281.097 105.899 280.422 106.085 279.797 105.982C278.688 105.8 277.897 104.971 277.129 104.187C268.534 95.4087 257.873 88.8597 246.356 85.2847L246.395 85.2097Z" fill="white"/>
</g>
<g opacity="0.2">
<path d="M208.819 24.9717C209.91 23.4967 211.811 22.9107 213.594 22.9227C217.678 22.9507 221.46 25.7357 223.52 29.4247C225.58 33.1137 226.094 37.5697 225.716 41.8227C225.338 46.0757 224.124 50.1937 222.918 54.2747L221.899 54.1327C220.545 46.5507 214.926 40.7537 210.534 34.5577C209.537 33.1507 208.578 31.6687 208.125 29.9827C207.672 28.2967 207.796 26.3567 208.82 24.9717H208.819Z" fill="white"/>
</g>
<g opacity="0.2">
<path d="M178.481 17.9817C180.412 13.6097 186.207 10.7967 190.73 9.89572C193.186 9.84572 195.763 9.82472 197.936 11.0227C200.109 12.2207 201.659 15.0737 200.643 17.4127C200.007 18.8757 198.586 19.7567 197.248 20.5467C193.011 23.0457 188.645 25.5917 183.828 26.2937C182.248 26.5237 180.502 26.5057 179.231 25.4977C177.154 23.8497 177.388 20.4567 178.481 17.9817Z" fill="white"/>
</g>
<g opacity="0.2">
<path d="M183.424 123.387C183.796 119.128 185.533 115.398 187.347 111.697C187.965 110.435 188.614 109.415 189.28 108.589C193.018 103.96 200.272 105.885 201.633 111.773C202.094 113.769 202.08 115.905 201.544 117.873C200.25 122.624 196.413 126.309 192.042 128.182C189.105 129.441 185.096 129.735 183.727 126.107C183.403 125.248 183.344 124.306 183.424 123.387Z" fill="white"/>
</g>
<g opacity="0.2">
<path d="M196.447 216.604C195.091 224.493 195.664 232.895 199.027 240.098C202.39 247.301 208.74 253.144 216.251 254.74C223.762 256.335 232.238 253.185 236.379 246.44C249.948 255.628 271.568 259.377 286.968 248.466C302.368 237.555 309.49 219.171 307.308 199.851C317.697 195.973 327.544 185.513 330.421 174.376C333.299 163.239 330.642 150.702 323.535 141.879L324.087 141.309C326.23 144.331 345.981 173.699 323.9 199.703C323.9 199.703 330.664 220.862 312.244 236.196C312.244 236.196 305.477 259 273.524 269.222C241.571 279.444 197.964 268.829 189.694 244.452C185.008 230.64 183.702 226.298 183.45 225.126C173.033 222.512 165.698 212.727 165.785 201.501L165.904 186.1L165.967 186.003C168.246 201.66 181.396 214.864 196.447 216.606V216.604Z" fill="black"/>
</g>
<path opacity="0.2" d="M323.899 124.142L323.901 136.959C323.89 134.395 323.301 102.458 301.095 75.9447C277.944 48.3037 266.567 52.7437 266.567 52.7437C266.567 52.7437 265.778 32.9137 233.446 17.2397C201.115 1.56571 194.964 11.8827 194.964 11.8827C194.964 11.8827 187.455 0.351711 168.808 4.79471C171.684 1.56171 179.109 -3.42028 194.96 3.43972C194.96 3.43972 240.07 0.294716 275.031 46.6877C275.031 46.6877 321.182 69.2397 323.901 124.142H323.899Z" fill="white"/>
<path d="M166.706 206.137C166.238 142.674 166.437 71.4787 167.276 8.01971C167.75 71.4827 167.539 142.678 166.706 206.137Z" fill="#407BFF"/>
<path opacity="0.6" d="M166.706 206.137C165.558 140.341 165.739 73.8077 167.276 8.01971C168.434 73.8157 168.232 140.349 166.706 206.137Z" fill="black"/>
</svg>
